# xmcd
#
# Track frame offsets:
#  150
#  19425
#  32691
#  51674
#  72269
#  91170
#  112989
#  130854
#  148357
#  167713
#  184468
#  201314
#
# Disc length: 2870 seconds
#
# Revision: 0
# Processed by: cddbd v1.5.2PL0 Copyright (c) Steve Scherf et al.
# Submitted via: AltoMP3_Maker 3.0
#
DISCID=b90b340c
DTITLE=Johnny Reid - Born To Roll
DYEAR=1900
DGENRE=
TTITLE0=Gypsy In My Soul
TTITLE1=I Promise You
TTITLE2=Born To Roll
TTITLE3=You Turned It Up
TTITLE4=You Still Own Me
TTITLE5=Missin' An Angel
TTITLE6=Wish It Was
TTITLE7=Here I Am
TTITLE8=Sixty To Zero
TTITLE9=Still Talkin 'Bout You
TTITLE10=She Calls Me Home
TTITLE11=Time Flies
EXTD=
EXTT0=
EXTT1=
EXTT2=
EXTT3=
EXTT4=
EXTT5=
EXTT6=
EXTT7=
EXTT8=
EXTT9=
EXTT10=
EXTT11=
PLAYORDER=
